<svg width="260" height="260" viewBox="0 0 260 260" fill="none" xmlns="http://www.w3.org/2000/svg">
<g filter="url(#filter0_d_608_72)">
<rect x="40" y="36" width="180" height="180" rx="32" fill="white"/>
<rect x="40.5" y="36.5" width="179" height="179" rx="31.5" stroke="white"/>
</g>
<path d="M176.852 102.88L180 94.7281L179.863 94.2231L148.724 102.427C152.044 97.6247 150.904 93.7734 150.904 93.7734C150.904 93.7734 140.959 100.124 133.439 99.9577C125.919 99.7915 123.495 97.7844 111.964 101.463C100.433 105.138 97.1744 116.422 93.8314 118.846C90.4884 121.27 80 129.165 80 129.165L80.0228 129.305L89.4783 126.294C89.4783 126.294 86.8848 128.738 81.375 136.164C81.375 136.164 81.2805 136.076 81.1176 135.926L81.1274 135.978C81.1274 135.978 85.5554 142.745 89.9019 141.494C90.3385 141.367 90.8305 141.159 91.3682 140.885C93.1179 141.859 95.4019 142.817 97.9238 143.081C97.9238 143.081 96.2165 141.097 94.7926 138.839C95.1771 138.591 95.5713 138.334 95.9721 138.073L95.7864 138.203L99.3868 139.526L98.9893 136.141C99.0023 136.134 99.0121 136.125 99.0251 136.118L102.564 137.418L102.124 134.339C102.573 134.104 103.02 133.883 103.466 133.678L107.155 119.726L122.407 109.322L121.194 112.372C118.102 119.977 112.296 121.772 112.296 121.772L109.872 122.691C108.07 124.822 107.311 125.346 106.692 132.498C108.145 132.133 109.533 132.045 110.791 132.384C117.307 134.14 119.565 141.993 117.809 144.166C117.369 144.71 116.323 145.639 115.004 146.73H112.358L112.322 148.874C112.231 148.946 112.14 149.014 112.052 149.086H109.36L109.328 151.178C109.09 151.36 108.852 151.536 108.624 151.709C106.096 151.761 102.893 149.555 102.893 149.555C102.893 151.562 104.564 154.651 104.564 154.651C104.564 154.651 104.675 154.599 104.861 154.508C104.698 154.628 104.607 154.694 104.607 154.694C104.607 154.694 111.374 159.206 115.636 157.535C119.425 156.049 129.236 148.314 137.704 144.652L163.331 137.9L166.709 129.145L147.179 134.29V126.428L170.095 120.39L173.474 111.635L147.186 118.562V110.697L176.852 102.88Z" fill="black"/>
<defs>
<filter id="filter0_d_608_72" x="0" y="0" width="260" height="260" filterUnits="userSpaceOnUse" color-interpolation-filters="sRGB">
<feFlood flood-opacity="0" result="BackgroundImageFix"/>
<feColorMatrix in="SourceAlpha" type="matrix" values="0 0 0 0 0 0 0 0 0 0 0 0 0 0 0 0 0 0 127 0" result="hardAlpha"/>
<feOffset dy="4"/>
<feGaussianBlur stdDeviation="20"/>
<feComposite in2="hardAlpha" operator="out"/>
<feColorMatrix type="matrix" values="0 0 0 0 0.0367917 0 0 0 0 0.0348958 0 0 0 0 0.0484375 0 0 0 0.1 0"/>
<feBlend mode="normal" in2="BackgroundImageFix" result="effect1_dropShadow_608_72"/>
<feBlend mode="normal" in="SourceGraphic" in2="effect1_dropShadow_608_72" result="shape"/>
</filter>
</defs>
</svg>
