<svg width="260" height="260" viewBox="0 0 260 260" fill="none" xmlns="http://www.w3.org/2000/svg">
<g filter="url(#filter0_d_608_58)">
<rect x="40" y="36" width="180" height="180" rx="32" fill="white"/>
<rect x="40.5" y="36.5" width="179" height="179" rx="31.5" stroke="white"/>
</g>
<g clip-path="url(#clip0_608_58)">
<path d="M86.7195 150.978C87.1732 151.785 87.8286 152.39 88.6352 152.844L127.454 175.227C129.067 176.185 131.033 176.185 132.596 175.227L171.415 152.844C173.028 151.936 173.986 150.222 173.986 148.357V103.589C173.986 101.724 173.028 100.01 171.415 99.1022L132.596 76.7184C130.983 75.7605 129.017 75.7605 127.454 76.7184L88.6352 99.1022C86.9715 100.01 86.0137 101.724 86.0137 103.589V148.407C86.0137 149.315 86.2153 150.172 86.7195 150.978Z" fill="#009639"/>
<path d="M117.573 143.063C117.573 145.836 115.355 148.054 112.582 148.054C109.809 148.054 107.591 145.836 107.591 143.063V108.832C107.591 106.16 109.96 103.992 113.237 103.992C115.607 103.992 118.379 104.95 120.043 107.017L121.556 108.832L142.427 133.787V108.933C142.427 106.16 144.645 103.942 147.418 103.942C150.191 103.942 152.409 106.16 152.409 108.933V143.164C152.409 145.836 150.039 148.004 146.763 148.004C144.393 148.004 141.62 147.046 139.957 144.979L117.573 118.26V143.063Z" fill="white"/>
</g>
<defs>
<filter id="filter0_d_608_58" x="0" y="0" width="260" height="260" filterUnits="userSpaceOnUse" color-interpolation-filters="sRGB">
<feFlood flood-opacity="0" result="BackgroundImageFix"/>
<feColorMatrix in="SourceAlpha" type="matrix" values="0 0 0 0 0 0 0 0 0 0 0 0 0 0 0 0 0 0 127 0" result="hardAlpha"/>
<feOffset dy="4"/>
<feGaussianBlur stdDeviation="20"/>
<feComposite in2="hardAlpha" operator="out"/>
<feColorMatrix type="matrix" values="0 0 0 0 0.0367917 0 0 0 0 0.0348958 0 0 0 0 0.0484375 0 0 0 0.1 0"/>
<feBlend mode="normal" in2="BackgroundImageFix" result="effect1_dropShadow_608_58"/>
<feBlend mode="normal" in="SourceGraphic" in2="effect1_dropShadow_608_58" result="shape"/>
</filter>
<clipPath id="clip0_608_58">
<rect width="100" height="100" fill="white" transform="translate(80 76)"/>
</clipPath>
</defs>
</svg>
