<svg width="260" height="260" viewBox="0 0 260 260" fill="none" xmlns="http://www.w3.org/2000/svg">
<g filter="url(#filter0_d_606_47)">
<rect x="40" y="36" width="180" height="180" rx="32" fill="white"/>
<path d="M126.921 79.2431C127.64 79.2431 128 79.6028 128.719 79.9625C124.403 81.761 120.087 86.4369 117.929 96.5083L110.015 98.6664C112.533 91.4726 117.569 79.2431 126.921 79.2431ZM130.878 82.84C131.597 84.9982 132.316 87.516 132.316 91.4726C132.316 91.8323 132.316 91.8323 132.316 92.192L121.885 95.0695C124.043 87.516 127.64 84.2788 130.878 82.84ZM140.23 89.3145L135.554 90.7532C135.554 90.3935 135.554 90.0338 135.554 89.6742C135.554 86.4369 135.194 83.9191 134.474 81.761C136.992 82.4803 139.15 85.7176 140.23 89.3145ZM163.609 95.0695C163.609 94.7098 163.25 94.3501 162.89 94.3501C162.171 94.3501 154.617 93.6308 154.617 93.6308C154.617 93.6308 149.222 88.2354 148.502 87.8757C147.783 87.1563 146.704 87.516 146.344 87.516C146.344 87.516 145.265 87.8757 143.467 88.5951C141.668 83.5594 138.431 78.8834 133.036 78.8834H132.676C131.237 76.7253 129.079 76.0059 127.281 76.0059C114.332 75.6462 108.217 91.8323 106.059 100.105C103.181 100.825 100.304 101.904 97.0666 102.983C94.1891 103.702 94.1891 104.062 93.8294 106.58C93.4697 108.378 86.2759 165.209 86.2759 165.209L143.467 176L174.4 169.166C174.4 169.166 163.609 95.7889 163.609 95.0695Z" fill="#8DB849"/>
<path d="M162.53 94.3502C162.17 94.3502 154.617 93.6308 154.617 93.6308C154.617 93.6308 149.221 88.2354 148.502 87.8757C148.142 87.516 148.142 87.516 147.783 87.516L143.466 176L174.4 169.166C174.4 169.166 163.609 95.7889 163.609 95.0695C163.609 94.7098 162.89 94.3502 162.53 94.3502Z" fill="#5A863E"/>
<path d="M133.035 111.615L129.079 123.125C129.079 123.125 125.842 121.327 121.525 121.327C115.411 121.327 115.051 124.924 115.051 126.003C115.051 131.039 128.719 133.197 128.719 145.426C128.719 155.138 122.604 161.253 114.332 161.253C104.62 161.253 99.5842 155.138 99.5842 155.138L102.102 146.505C102.102 146.505 107.138 150.822 111.454 150.822C114.332 150.822 115.411 148.663 115.411 146.865C115.411 140.031 104.26 139.671 104.26 128.521C104.26 119.169 111.094 110.177 124.403 110.177C130.518 109.817 133.035 111.615 133.035 111.615Z" fill="#FFFFFE"/>
<rect x="40.5" y="36.5" width="179" height="179" rx="31.5" stroke="white"/>
</g>
<defs>
<filter id="filter0_d_606_47" x="0" y="0" width="260" height="260" filterUnits="userSpaceOnUse" color-interpolation-filters="sRGB">
<feFlood flood-opacity="0" result="BackgroundImageFix"/>
<feColorMatrix in="SourceAlpha" type="matrix" values="0 0 0 0 0 0 0 0 0 0 0 0 0 0 0 0 0 0 127 0" result="hardAlpha"/>
<feOffset dy="4"/>
<feGaussianBlur stdDeviation="20"/>
<feComposite in2="hardAlpha" operator="out"/>
<feColorMatrix type="matrix" values="0 0 0 0 0.0367917 0 0 0 0 0.0348958 0 0 0 0 0.0484375 0 0 0 0.1 0"/>
<feBlend mode="normal" in2="BackgroundImageFix" result="effect1_dropShadow_606_47"/>
<feBlend mode="normal" in="SourceGraphic" in2="effect1_dropShadow_606_47" result="shape"/>
</filter>
</defs>
</svg>
