<svg width="260" height="260" viewBox="0 0 260 260" fill="none" xmlns="http://www.w3.org/2000/svg">
<g filter="url(#filter0_d_606_54)">
<rect x="40" y="36" width="180" height="180" rx="32" fill="white"/>
<g clip-path="url(#clip0_606_54)">
<path d="M130 176C157.614 176 180 153.614 180 126C180 98.3858 157.614 76 130 76C102.386 76 80 98.3858 80 126C80 153.614 102.386 176 130 176Z" fill="#4353FF"/>
<path d="M144.688 120.062L140.156 134.344C140.156 133.25 137.031 109.562 137.031 109.562C129.844 109.562 126.031 114.656 124.031 120.062L118.5 134.375C118.5 133.344 117.719 120.187 117.719 120.187C117.452 117.339 116.15 114.688 114.059 112.736C111.969 110.783 109.235 109.665 106.375 109.594L112.25 145.469C119.75 145.469 123.812 140.375 125.906 134.969L130.594 122.781C130.594 123.281 133.719 145.469 133.719 145.469C136.786 145.465 139.772 144.484 142.244 142.67C144.716 140.855 146.546 138.3 147.469 135.375L158.094 109.562C150.594 109.562 146.656 114.656 144.656 120.062H144.688Z" fill="white"/>
</g>
<rect x="40.5" y="36.5" width="179" height="179" rx="31.5" stroke="white"/>
</g>
<defs>
<filter id="filter0_d_606_54" x="0" y="0" width="260" height="260" filterUnits="userSpaceOnUse" color-interpolation-filters="sRGB">
<feFlood flood-opacity="0" result="BackgroundImageFix"/>
<feColorMatrix in="SourceAlpha" type="matrix" values="0 0 0 0 0 0 0 0 0 0 0 0 0 0 0 0 0 0 127 0" result="hardAlpha"/>
<feOffset dy="4"/>
<feGaussianBlur stdDeviation="20"/>
<feComposite in2="hardAlpha" operator="out"/>
<feColorMatrix type="matrix" values="0 0 0 0 0.0367917 0 0 0 0 0.0348958 0 0 0 0 0.0484375 0 0 0 0.1 0"/>
<feBlend mode="normal" in2="BackgroundImageFix" result="effect1_dropShadow_606_54"/>
<feBlend mode="normal" in="SourceGraphic" in2="effect1_dropShadow_606_54" result="shape"/>
</filter>
<clipPath id="clip0_606_54">
<rect width="100" height="100" fill="white" transform="translate(80 76)"/>
</clipPath>
</defs>
</svg>
